<?xml version="1.0" encoding="utf-8"?>
<svg xmlns="http://www.w3.org/2000/svg">
<symbol id="btn-play-h" viewBox="0 0 40 40">
<circle cx="20" cy="20" r="20" fill="white" fill-opacity="0.18"/>
<path fill-rule="evenodd" clip-rule="evenodd" d="M20 34.9895C28.2785 34.9895 34.9895 28.2785 34.9895 20C34.9895 11.7215 28.2785 5.01053 20 5.01053C11.7215 5.01053 5.01053 11.7215 5.01053 20C5.01053 28.2785 11.7215 34.9895 20 34.9895ZM20 36C28.8366 36 36 28.8366 36 20C36 11.1634 28.8366 4 20 4C11.1634 4 4 11.1634 4 20C4 28.8366 11.1634 36 20 36Z" fill="#F2F3F4"/>
<path fill-rule="evenodd" clip-rule="evenodd" d="M24.4126 18.8296C25.1958 19.4208 25.1958 20.5792 24.4126 21.1704L18.4249 25.6906C17.4345 26.4383 16 25.7459 16 24.5202V15.4798C16 14.2541 17.4345 13.5617 18.4249 14.3094L24.4126 18.8296ZM23.7235 20.2926C23.9193 20.1448 23.9193 19.8552 23.7235 19.7074L17.7359 15.1872C17.4883 15.0003 17.1296 15.1734 17.1296 15.4798V24.5202C17.1296 24.8266 17.4883 24.9997 17.7359 24.8128L23.7235 20.2926Z" fill="#F2F3F4"/>

</symbol>
<symbol id="btn-upload-h" viewBox="0 0 18 18">
<path fill-rule="evenodd" clip-rule="evenodd" d="M9.72326 2.33063C9.32474 1.88831 8.63039 1.89004 8.23408 2.33434L4.20456 6.85168C3.74463 7.3673 4.11063 8.18421 4.80157 8.18421H7.75844V15.1842C7.75844 15.4604 7.98229 15.6842 8.25844 15.6842H9.04298H9.82585C10.102 15.6842 10.3258 15.4604 10.3258 15.1842V8.18421H13.1996C13.8924 8.18421 14.2577 7.36344 13.794 6.84872L9.72326 2.33063Z" fill="white"/>

</symbol>
<symbol id="logo-font" viewBox="0 0 53 25">
<path fill-rule="evenodd" clip-rule="evenodd" d="M24.4217 11.5048H22.876V9.20657H24.4217V7.97538C24.4217 7.12722 24.6484 6.42271 25.1018 5.86183C25.5552 5.28728 26.304 5 27.3483 5C27.6368 5 27.9528 5.0342 28.2963 5.1026C28.6398 5.171 28.9283 5.24624 29.1619 5.32832V7.29822H28.1314C27.5406 7.29822 27.2452 7.59234 27.2452 8.18057V9.20657H29.1619V11.5048H27.2452V20H26.4217C25.3171 20 24.4217 19.1046 24.4217 18V11.5048ZM31.0168 6.57591C31.0168 5.79622 31.6488 5.16416 32.4285 5.16416C33.2082 5.16416 33.8403 5.79622 33.8403 6.57591V20H33.0168C31.9122 20 31.0168 19.1046 31.0168 18V6.57591ZM12.661 6.57591C12.661 5.79622 13.2931 5.16416 14.0728 5.16416C14.8525 5.16416 15.4846 5.79622 15.4846 6.57591V7.83174H12.661V6.57591ZM15.4846 9.20657V20H14.661C13.5565 20 12.661 19.1046 12.661 18V9.20657H15.4846ZM0 7.92339C0 6.81882 0.895431 5.92339 2 5.92339H2.98577V20L2 20C0.895431 20 0 19.1046 0 18V7.92339ZM4.05032 8.44733V5.92339H8.98099C9.67795 5.92339 10.243 6.48839 10.243 7.18536C10.243 7.88233 9.67795 8.44733 8.98099 8.44733H4.05032ZM4.05032 14.4391V11.9152H8.21844C8.9154 11.9152 9.4804 12.4802 9.4804 13.1772C9.4804 13.8741 8.9154 14.4391 8.21843 14.4391H4.05032ZM19.8295 5.16416C19.0498 5.16416 18.4177 5.79622 18.4177 6.57591V18C18.4177 19.1046 19.3131 20 20.4177 20H21.2412V6.57591C21.2412 5.79622 20.6092 5.16416 19.8295 5.16416ZM38.1441 5.16416C37.3644 5.16416 36.7324 5.79622 36.7324 6.57591V7.83174H39.5559V6.57591C39.5559 5.79622 38.9238 5.16416 38.1441 5.16416ZM39.5559 20V9.20657H36.7324V18C36.7324 19.1046 37.6278 20 38.7324 20H39.5559ZM44.9622 14.4186L41.4586 9.20657H43.7494C44.4396 9.20657 45.0811 9.56252 45.4464 10.1482L46.1305 11.2453V17.1537L44.9125 19.072C44.5456 19.6499 43.9086 20 43.2241 20H41.1494L44.9622 14.4186ZM47.1951 17.1942L48.3722 19.0651C48.7383 19.6469 49.3776 20 50.065 20H52.3404L48.5689 14.357L52.1343 9.20657H50.0374C49.3538 9.20657 48.7175 9.55572 48.3504 10.1323L47.1951 11.9466V17.1942Z"/>

</symbol>
<symbol id="logo" viewBox="0 0 21 25">
<path fill-rule="evenodd" clip-rule="evenodd" d="M5.72092 1.5479L7.99313 3.13919L2.23832 24.5151C1.5048 23.9868 1 23.1292 1 22.0859V4.00522C1 1.57786 3.73265 0.155462 5.72092 1.5479ZM18.6297 15.5029L7.03835 23.6206L9.33372 15.0946L12.9876 16.069C14.1575 16.381 15.361 15.6862 15.6757 14.5171C15.9905 13.3479 15.2973 12.1473 14.1274 11.8353L10.4735 10.8609L11.8291 5.82562L18.6297 10.5882C20.3351 11.7826 20.3351 14.3085 18.6297 15.5029Z"/>

</symbol>
<symbol id="nav-btn-search-h" viewBox="0 0 24 24">
<path fill-rule="evenodd" clip-rule="evenodd" d="M15.924 16.7893C16.1943 16.519 16.6327 16.519 16.903 16.7893L19.9319 19.8182C20.2023 20.0885 20.2023 20.5269 19.9319 20.7972C19.6615 21.0676 19.2232 21.0676 18.9528 20.7972L15.924 17.7684C15.6536 17.498 15.6536 17.0597 15.924 16.7893Z" fill="white"/>
<path fill-rule="evenodd" clip-rule="evenodd" d="M11.2605 18.1364C15.058 18.1364 18.1364 15.058 18.1364 11.2605C18.1364 7.46306 15.058 4.38462 11.2605 4.38462C7.46306 4.38462 4.38462 7.46306 4.38462 11.2605C4.38462 15.058 7.46306 18.1364 11.2605 18.1364ZM11.2605 19.521C15.8227 19.521 19.521 15.8227 19.521 11.2605C19.521 6.69836 15.8227 3 11.2605 3C6.69836 3 3 6.69836 3 11.2605C3 15.8227 6.69836 19.521 11.2605 19.521Z" fill="white"/>

</symbol></svg>