<svg width="40" height="40" viewBox="0 0 40 40" fill="none" xmlns="http://www.w3.org/2000/svg">
<circle cx="20" cy="20" r="20" fill="white" fill-opacity="0.18"/>
<path fill-rule="evenodd" clip-rule="evenodd" d="M20 34.9895C28.2785 34.9895 34.9895 28.2785 34.9895 20C34.9895 11.7215 28.2785 5.01053 20 5.01053C11.7215 5.01053 5.01053 11.7215 5.01053 20C5.01053 28.2785 11.7215 34.9895 20 34.9895ZM20 36C28.8366 36 36 28.8366 36 20C36 11.1634 28.8366 4 20 4C11.1634 4 4 11.1634 4 20C4 28.8366 11.1634 36 20 36Z" fill="#F2F3F4"/>
<path fill-rule="evenodd" clip-rule="evenodd" d="M24.4126 18.8296C25.1958 19.4208 25.1958 20.5792 24.4126 21.1704L18.4249 25.6906C17.4345 26.4383 16 25.7459 16 24.5202V15.4798C16 14.2541 17.4345 13.5617 18.4249 14.3094L24.4126 18.8296ZM23.7235 20.2926C23.9193 20.1448 23.9193 19.8552 23.7235 19.7074L17.7359 15.1872C17.4883 15.0003 17.1296 15.1734 17.1296 15.4798V24.5202C17.1296 24.8266 17.4883 24.9997 17.7359 24.8128L23.7235 20.2926Z" fill="#F2F3F4"/>
</svg>
