<svg width="53" height="25" viewBox="0 0 53 25" xmlns="http://www.w3.org/2000/svg">
<path fill-rule="evenodd" clip-rule="evenodd" d="M24.4217 11.5048H22.876V9.20657H24.4217V7.97538C24.4217 7.12722 24.6484 6.42271 25.1018 5.86183C25.5552 5.28728 26.304 5 27.3483 5C27.6368 5 27.9528 5.0342 28.2963 5.1026C28.6398 5.171 28.9283 5.24624 29.1619 5.32832V7.29822H28.1314C27.5406 7.29822 27.2452 7.59234 27.2452 8.18057V9.20657H29.1619V11.5048H27.2452V20H26.4217C25.3171 20 24.4217 19.1046 24.4217 18V11.5048ZM31.0168 6.57591C31.0168 5.79622 31.6488 5.16416 32.4285 5.16416C33.2082 5.16416 33.8403 5.79622 33.8403 6.57591V20H33.0168C31.9122 20 31.0168 19.1046 31.0168 18V6.57591ZM12.661 6.57591C12.661 5.79622 13.2931 5.16416 14.0728 5.16416C14.8525 5.16416 15.4846 5.79622 15.4846 6.57591V7.83174H12.661V6.57591ZM15.4846 9.20657V20H14.661C13.5565 20 12.661 19.1046 12.661 18V9.20657H15.4846ZM0 7.92339C0 6.81882 0.895431 5.92339 2 5.92339H2.98577V20L2 20C0.895431 20 0 19.1046 0 18V7.92339ZM4.05032 8.44733V5.92339H8.98099C9.67795 5.92339 10.243 6.48839 10.243 7.18536C10.243 7.88233 9.67795 8.44733 8.98099 8.44733H4.05032ZM4.05032 14.4391V11.9152H8.21844C8.9154 11.9152 9.4804 12.4802 9.4804 13.1772C9.4804 13.8741 8.9154 14.4391 8.21843 14.4391H4.05032ZM19.8295 5.16416C19.0498 5.16416 18.4177 5.79622 18.4177 6.57591V18C18.4177 19.1046 19.3131 20 20.4177 20H21.2412V6.57591C21.2412 5.79622 20.6092 5.16416 19.8295 5.16416ZM38.1441 5.16416C37.3644 5.16416 36.7324 5.79622 36.7324 6.57591V7.83174H39.5559V6.57591C39.5559 5.79622 38.9238 5.16416 38.1441 5.16416ZM39.5559 20V9.20657H36.7324V18C36.7324 19.1046 37.6278 20 38.7324 20H39.5559ZM44.9622 14.4186L41.4586 9.20657H43.7494C44.4396 9.20657 45.0811 9.56252 45.4464 10.1482L46.1305 11.2453V17.1537L44.9125 19.072C44.5456 19.6499 43.9086 20 43.2241 20H41.1494L44.9622 14.4186ZM47.1951 17.1942L48.3722 19.0651C48.7383 19.6469 49.3776 20 50.065 20H52.3404L48.5689 14.357L52.1343 9.20657H50.0374C49.3538 9.20657 48.7175 9.55572 48.3504 10.1323L47.1951 11.9466V17.1942Z" />
</svg>
