<svg width="24" height="24" viewBox="0 0 24 24" fill="none" xmlns="http://www.w3.org/2000/svg">
<path fill-rule="evenodd" clip-rule="evenodd" d="M15.924 16.7893C16.1943 16.519 16.6327 16.519 16.903 16.7893L19.9319 19.8182C20.2023 20.0885 20.2023 20.5269 19.9319 20.7972C19.6615 21.0676 19.2232 21.0676 18.9528 20.7972L15.924 17.7684C15.6536 17.498 15.6536 17.0597 15.924 16.7893Z" fill="white"/>
<path fill-rule="evenodd" clip-rule="evenodd" d="M11.2605 18.1364C15.058 18.1364 18.1364 15.058 18.1364 11.2605C18.1364 7.46306 15.058 4.38462 11.2605 4.38462C7.46306 4.38462 4.38462 7.46306 4.38462 11.2605C4.38462 15.058 7.46306 18.1364 11.2605 18.1364ZM11.2605 19.521C15.8227 19.521 19.521 15.8227 19.521 11.2605C19.521 6.69836 15.8227 3 11.2605 3C6.69836 3 3 6.69836 3 11.2605C3 15.8227 6.69836 19.521 11.2605 19.521Z" fill="white"/>
</svg>
